-
http:// www. Speed. Cd       
http:// www. Speed. Cd       the fast  and The Hottest Private Tracker on the net

Please Seed back to make the speed Faster!!!

and don't forget to visit      ...... www. Speed. Cd..........
-[img]http://noob.hu/2011/04/15/the_company_men_poster.jpg[/img]

::::::::::::::Enjoy:Another:Release:From:T0XiCiNK::::::::::::::

File:: The.Company.Men.2011.DVDRip.XViD.AC3-T0XiCiNK

Video Source:: The.Company.Men.2010.PAL.DVD9.TRL, thanks :)
Audio Source:: The.Company.Men.2010.PAL.DVD9.TRL, thanks :)
Language::English
IMDB:: http://www.imdb.com/title/tt1172991/

The story centers on a year in the life of three men trying to survive a round of corporate downsizing at a major company - and how that affects them, their families, and their communities.

Specs::

General

Format                           : AVI
Format/Info                      : Audio Video Interleave
File size                        : 1.33 GiB
Duration                         : 1h 40mn
Overall bit rate                 : 1 894 Kbps
Writing library                  : TMPGEnc 4.0 XPress Version. 4.7.4.299

Video
ID                               : 0
Format                           : MPEG-4 Visual
Format profile                   : Advanced Simple@L5
Format settings, BVOP            : Yes
Format settings, QPel            : No
Format settings, GMC             : No warppoints
Format settings, Matrix          : Default (MPEG)
Codec ID                         : XVID
Codec ID/Hint                    : XviD
Duration                         : 1h 40mn
Bit rate                         : 1 695 Kbps
Width                            : 720 pixels
Height                           : 400 pixels
Display aspect ratio             : 16:9
Frame rate                       : 25.000 fps
Color space                      : YUV
Chroma subsampling               : 4:2:0
Bit depth                        : 8 bits
Scan type                        : Progressive
Bits/(Pixel*Frame)               : 0.235
Stream size                      : 1.19 GiB (89%)
Writing library                  : XviD 1.2.0.dev47 (UTC 2006-11-01)

Audio
ID                               : 1
Format                           : AC-3
Format/Info                      : Audio Coding 3
Mode extension                   : CM (complete main)
Codec ID                         : 2000
Duration                         : 1h 40mn
Bit rate mode                    : Constant
Bit rate                         : 192 Kbps
Channel(s)                       : 1 channel
Channel positions                : Front: C
Sampling rate                    : 48.0 KHz
Bit depth                        : 16 bits
Stream size                      : 138 MiB (10%)
Alignment                        : Aligned on interleaves
Interleave, duration             : 240 ms (6.00 video frames)
Interleave, preload duration     : 224 ms



NOTES:: Used the Italian DVDR which had an english track on it, enjoy :)


::Why Complain? Whats Free Is Free::

::We are always looking for friends with unreleased DVD's, Screeners, R5's, Audio, Cams, Silvers,
...and any other good sources you may have to offer - 
..contact us: t0xicreleases@hushmail.com

::::::::::::::::::::::::::::::::::::   Respect To   :::::::::::::::::::::::::::::::::::::
::FLAWL3SS,Rx,HEHE,Hive-CM8,Tranz,Vik,Joey,bob,Unevano,SANTi & our friends on utn and PA::
                       "and to all of you who support us, Thank-You"


[img]http://noob.hu/2011/04/15/vlcsnap-2011-04-15-13h26m40s82.png[/img]
[img]http://noob.hu/2011/04/15/vlcsnap-2011-04-15-13h29m16s82.png[/img]
[img]http://noob.hu/2011/04/15/vlcsnap-2011-04-15-13h31m28s136.png[/img]
[img]http://noob.hu/2011/04/15/vlcsnap-2011-04-15-14h28m03s18.png[/img]